<?xml version="1.0" encoding="UTF-8"?>
<svg id="Layer_2" data-name="Layer 2" xmlns="http://www.w3.org/2000/svg" viewBox="0 0 29.61 33.31">
  <defs>
    <style>
      .cls-1 {
        fill: #29bbfd;
      }

      .cls-1, .cls-2, .cls-3, .cls-4, .cls-5 {
        stroke-width: 0px;
      }

      .cls-2 {
        fill: #1c0353;
      }

      .cls-3 {
        fill: #0b89fd;
      }

      .cls-4 {
        fill: #002e89;
      }

      .cls-5 {
        fill: #006ceb;
      }
    </style>
  </defs>
  <g id="Group_46312" data-name="Group 46312">
    <g>
      <path id="Path_42012" data-name="Path 42012" class="cls-4" d="m26.93,9.83h0c-.01.08-.03.15-.04.21s-.03.13-.05.2l-.03.11c-.02.06-.04.11-.05.16-.01.03-.02.06-.03.09-.05.11-.08.17-.08.17-.58,1.17-1.37,2.23-2.33,3.12-.06.06-.12.12-.18.18-.32.32-.62.6-.88.83l-.11.1s-.08.08-.12.11c-.02.02-.04.03-.05.05l-.07.06-.04.03-.05.04s-.03.03-.05.05-.05.04-.07.06c-.05.04-.08.07-.11.09h-.02s-.01.02-.01.02h0s-3.55-3.62-3.55-3.62v3.46h-7.62l7.29-7.3.43-.43c1.06-.96,2.43-1.49,3.86-1.48.2,0,.41.01.61.03,1.11.12,2.16.55,3.03,1.26h0s.02.03.02.04c.06.12.11.25.16.38l.03.08c.02.06.04.12.05.18.15.57.17,1.16.07,1.73"/>
      <path id="Path_42013" data-name="Path 42013" class="cls-1" d="m5.47,17.53l-.08.08c-.26.25-.47.47-.68.67.32-.31.57-.56.77-.75"/>
      <path id="Path_42014" data-name="Path 42014" class="cls-3" d="m6.99,18.02c-1.04.76-2,1.64-2.84,2.62.82-1,1.78-1.88,2.84-2.62"/>
      <path id="Path_42015" data-name="Path 42015" class="cls-2" d="m26.77,13.03c-.97,1.24-2.06,2.39-3.24,3.44l-.02.02-.95-.99h0s.01-.01.01-.01l.02-.02s.06-.05.11-.09l.07-.06s.03-.03.05-.04l.05-.04.04-.03s.04-.03.06-.06.04-.03.06-.05c.04-.03.08-.07.12-.11l.11-.1c.25-.23.56-.51.88-.83l.18-.18c.95-.89,1.74-1.95,2.33-3.12,0,0,.03-.06.08-.17.01-.03.02-.06.03-.09s.03-.1.05-.16c.01-.03.02-.07.03-.11.02-.06.03-.12.05-.19s.03-.13.05-.2h0c.11-.58.09-1.18-.07-1.74-.01-.06-.03-.12-.05-.17l-.03-.08c-.05-.15-.12-.29-.19-.43h0c.21.17.42.37.6.57.34.6.52,1.29.52,1.98.07,1.1-.27,2.2-.96,3.06"/>
      <path id="Path_42016" data-name="Path 42016" class="cls-4" d="m18.25,17.96l-7.48,7.5-.28.29c-2.04,1.91-5.15,2.08-7.39.41h0c-.75-1.23-.75-2.78,0-4.01,0,0,.06-.12.19-.33,0-.02.02-.04.03-.05.02-.03.04-.07.06-.1s.04-.06.06-.09.04-.06.06-.09l.05-.08c.11-.16.24-.34.4-.54.02-.03.05-.07.08-.1s.07-.09.11-.13c.84-.98,1.8-1.85,2.84-2.62l.09-.06,3.52,3.49v-3.49h7.65Z"/>
      <path id="Path_42017" data-name="Path 42017" class="cls-5" d="m17.37,4.47c.27.27.28.71,0,.98,0,0,0,0,0,0L7.16,15.81l-1.06,1.07-.03.03-.03.03s-.09.09-.17.17c-.02.02-.04.04-.07.07l-.04.04s-.08.08-.13.13-.07.07-.1.1-.05.05-.08.08-.05.05-.08.07c-.2.2-.51.49-.79.76l-.62.61c-.09.09-.18.18-.26.27-3.03,3.2-1.31,6.16-1.13,6.46l.02.02.04.05c-.16-.14-.3-.3-.44-.45h0c-.34-.44-.64-.91-.9-1.4h0C.13,21.46-.26,18.7.17,16.02c.54-3.28,2.16-6.29,4.6-8.55.18-.17.35-.34.52-.51L12.08.2c.27-.27.71-.27.98,0l4.31,4.27Z"/>
      <path id="Path_42018" data-name="Path 42018" class="cls-2" d="m7.08,17.96l-.08.06c-1.04.76-2,1.64-2.84,2.62-.04.05-.07.09-.11.13s-.05.07-.08.1c-.14.17-.28.35-.4.54l-.05.08-.06.09s-.04.06-.06.09-.04.06-.06.1l-.03.05c-.13.21-.19.33-.19.33-.76,1.23-.76,2.78,0,4.01-.16-.12-.32-.25-.46-.38l-.04-.05v-.02c-.2-.3-1.91-3.25,1.12-6.45.08-.09.17-.18.26-.27l.62-.61c.28-.27.58-.57.79-.76.03-.03.05-.05.08-.07s.05-.05.08-.08l.1-.1s.09-.09.13-.13l.05-.04.07-.07c.08-.08.14-.14.17-.18l.03-.03.03-.03.97,1.08Z"/>
      <path id="Path_42019" data-name="Path 42019" class="cls-5" d="m26.39,24.19s-2.37,2.58-3.6,3.66l-5.29,5.25c-.27.27-.71.27-.98,0l-4.37-4.31c-.27-.27-.27-.71,0-.99l9.57-9.59c.21-.21.42-.42.63-.62.38-.38.77-.75,1.16-1.13l.02-.02c1.18-1.04,2.27-2.19,3.25-3.44.69-.86,1.03-1.96.96-3.06,0-.7-.18-1.38-.53-1.98.09.1.18.2.27.31s.16.21.23.32l.02.03c.07.1.14.21.2.32,1.04,1.64,1.62,3.53,1.68,5.47.08,3.53-1.06,6.97-3.22,9.75"/>
    </g>
  </g>
</svg>